<svg width="68" height="47" viewBox="0 0 68 47" fill="none" xmlns="http://www.w3.org/2000/svg">
<path fill-rule="evenodd" clip-rule="evenodd" d="M13.028 10.9859C14.1115 10.7241 15.219 10.5923 16.3299 10.5929C25.1274 10.5929 32.2571 18.7409 32.2571 28.7879C32.2571 38.8379 25.1274 46.9859 16.3299 46.9859C7.5324 46.9859 0.399902 38.8409 0.399902 28.7879C0.399902 28.4939 0.405527 28.1969 0.41959 27.9029H0.399902C0.399902 12.7379 11.1999 0.398926 24.4749 0.398926V6.50692C20.169 6.50692 16.1977 8.18092 13.028 10.9859ZM48.6737 10.9859C49.7368 10.7279 50.8393 10.5929 51.9699 10.5929C60.7674 10.5929 67.8999 18.7409 67.8999 28.7879C67.8999 38.8379 60.7674 46.9859 51.9699 46.9859C43.1724 46.9859 36.0427 38.8409 36.0427 28.7879C36.0427 28.4939 36.0483 28.1969 36.0624 27.9029H36.0427C36.0427 12.7379 46.8427 0.398926 60.1177 0.398926V6.50692C55.809 6.50692 51.8433 8.18092 48.6737 10.9859Z" fill="#D97706"/>
</svg>
