<svg width="17" height="17" viewBox="0 0 17 17" fill="none" xmlns="http://www.w3.org/2000/svg">
<path d="M8.32031 0C6.8099 0 5.41667 0.371094 4.14062 1.11328C2.86458 1.85547 1.85547 2.86458 1.11328 4.14062C0.371094 5.41667 0 6.8099 0 8.32031C0 9.70052 0.30599 10.9831 0.917969 12.168C1.52995 13.3529 2.36979 14.3359 3.4375 15.1172C4.50521 15.8984 5.70312 16.3802 7.03125 16.5625V10.7422H4.92188V8.32031H7.03125V6.48438C7.03125 5.46875 7.3112 4.67448 7.87109 4.10156C8.43099 3.52865 9.19271 3.24219 10.1562 3.24219C10.7812 3.24219 11.4062 3.29427 12.0312 3.39844V5.46875H10.9766C10.5078 5.46875 10.1562 5.59896 9.92188 5.85938C9.71354 6.09375 9.60938 6.39323 9.60938 6.75781V8.32031H11.9531L11.5625 10.7422H9.60938V16.5625C10.9635 16.3542 12.1745 15.8594 13.2422 15.0781C14.3099 14.2969 15.1432 13.3138 15.7422 12.1289C16.3411 10.944 16.6406 9.67448 16.6406 8.32031C16.6406 6.8099 16.2695 5.41667 15.5273 4.14062C14.7852 2.86458 13.776 1.85547 12.5 1.11328C11.224 0.371094 9.83073 0 8.32031 0Z" fill="white"/>
</svg>
