<svg width="18" height="18" viewBox="0 0 18 18" fill="none" xmlns="http://www.w3.org/2000/svg">
<path d="M5.48438 0.679688H12.5156C13.375 0.679688 14.1758 0.894531 14.918 1.32422C15.6602 1.75391 16.2461 2.33984 16.6758 3.08203C17.1055 3.82422 17.3203 4.625 17.3203 5.48438V12.5156C17.3203 13.375 17.1055 14.1758 16.6758 14.918C16.2461 15.6602 15.6602 16.2461 14.918 16.6758C14.1758 17.1055 13.375 17.3203 12.5156 17.3203H5.48438C4.625 17.3203 3.82422 17.1055 3.08203 16.6758C2.33984 16.2461 1.75391 15.6602 1.32422 14.918C0.894531 14.1758 0.679688 13.375 0.679688 12.5156V5.48438C0.679688 4.625 0.894531 3.82422 1.32422 3.08203C1.75391 2.33984 2.33984 1.75391 3.08203 1.32422C3.82422 0.894531 4.625 0.679688 5.48438 0.679688ZM5.32812 2.32031C4.49479 2.32031 3.78516 2.61328 3.19922 3.19922C2.61328 3.78516 2.32031 4.49479 2.32031 5.32812V12.6719C2.32031 13.5052 2.61328 14.2148 3.19922 14.8008C3.78516 15.3867 4.49479 15.6797 5.32812 15.6797H12.6719C13.5052 15.6797 14.2148 15.3867 14.8008 14.8008C15.3867 14.2148 15.6797 13.5052 15.6797 12.6719V5.32812C15.6797 4.49479 15.3867 3.78516 14.8008 3.19922C14.2148 2.61328 13.5052 2.32031 12.6719 2.32031H5.32812ZM13.375 3.57031C13.6615 3.57031 13.9089 3.67448 14.1172 3.88281C14.3255 4.09115 14.4297 4.33854 14.4297 4.625C14.4297 4.91146 14.3255 5.15885 14.1172 5.36719C13.9089 5.57552 13.6615 5.67969 13.375 5.67969C13.0885 5.67969 12.8411 5.57552 12.6328 5.36719C12.4245 5.15885 12.3203 4.91146 12.3203 4.625C12.3203 4.33854 12.4245 4.09115 12.6328 3.88281C12.8411 3.67448 13.0885 3.57031 13.375 3.57031ZM9 4.82031C9.75521 4.82031 10.4518 5.00911 11.0898 5.38672C11.7279 5.76432 12.2357 6.27214 12.6133 6.91016C12.9909 7.54818 13.1797 8.24479 13.1797 9C13.1797 9.75521 12.9909 10.4518 12.6133 11.0898C12.2357 11.7279 11.7279 12.2357 11.0898 12.6133C10.4518 12.9909 9.75521 13.1797 9 13.1797C8.24479 13.1797 7.54818 12.9909 6.91016 12.6133C6.27214 12.2357 5.76432 11.7279 5.38672 11.0898C5.00911 10.4518 4.82031 9.75521 4.82031 9C4.82031 8.24479 5.00911 7.54818 5.38672 6.91016C5.76432 6.27214 6.27214 5.76432 6.91016 5.38672C7.54818 5.00911 8.24479 4.82031 9 4.82031ZM9 6.5C8.29688 6.5 7.70443 6.74089 7.22266 7.22266C6.74089 7.70443 6.5 8.29688 6.5 9C6.5 9.70312 6.74089 10.2956 7.22266 10.7773C7.70443 11.2591 8.29688 11.5 9 11.5C9.70312 11.5 10.2956 11.2591 10.7773 10.7773C11.2591 10.2956 11.5 9.70312 11.5 9C11.5 8.29688 11.2591 7.70443 10.7773 7.22266C10.2956 6.74089 9.70312 6.5 9 6.5Z" fill="white"/>
</svg>
