<svg width="56" height="56" viewBox="0 0 56 56" fill="none" xmlns="http://www.w3.org/2000/svg">
<path d="M48.373 25.5391H55.998V30.4609H48.373V25.5391ZM0.00186157 25.5391H7.62686V30.4609H0.00186157V25.5391ZM30.5019 0.460938V7.96094H25.498V0.460938H30.5019ZM10.0097 6.78906L15.371 12.0625L11.7968 15.5781L6.43546 10.3047L10.0097 6.78906ZM40.6288 12.0625L45.9901 6.78906L49.5644 10.3047L44.203 15.5781L40.6288 12.0625ZM27.9999 13C30.7799 13 33.3414 13.6641 35.6845 14.9922C38.0276 16.3203 39.8743 18.1367 41.2245 20.4414C42.5748 22.7461 43.2499 25.2656 43.2499 28C43.2499 30.7344 42.5549 33.2539 41.1649 35.5586C39.775 37.8633 37.9283 39.6797 35.6249 41.0078V45.4609C35.6249 46.1641 35.3866 46.7695 34.9101 47.2773C34.4335 47.7852 33.8378 48.0391 33.123 48.0391H22.8769C22.162 48.0391 21.5663 47.7852 21.0898 47.2773C20.6132 46.7695 20.3749 46.1641 20.3749 45.4609V41.0078C18.0715 39.6797 16.2248 37.8633 14.8349 35.5586C13.4449 33.2539 12.7499 30.7344 12.7499 28C12.7499 25.2656 13.425 22.7461 14.7753 20.4414C16.1256 18.1367 17.9722 16.3203 20.3153 14.9922C22.6584 13.6641 25.22 13 27.9999 13ZM33.123 50.5V52.9609C33.123 53.6641 32.8648 54.2695 32.3485 54.7773C31.8323 55.2852 31.2167 55.5391 30.5019 55.5391H25.498C24.7831 55.5391 24.1676 55.2852 23.6513 54.7773C23.135 54.2695 22.8769 53.6641 22.8769 52.9609V50.5H33.123ZM25.498 43H30.5019V37.7266C32.7258 37.1016 34.5526 35.9102 35.9823 34.1523C37.412 32.3945 38.1269 30.3438 38.1269 28C38.1269 25.2656 37.134 22.9219 35.1483 20.9688C33.1627 19.0156 30.7799 18.0391 27.9999 18.0391C25.22 18.0391 22.8371 19.0156 20.8515 20.9688C18.8658 22.9219 17.873 25.2656 17.873 28C17.873 30.3438 18.5878 32.3945 20.0175 34.1523C21.4472 35.9102 23.274 37.1016 25.498 37.7266V43Z" fill="#A57937"/>
</svg>
