<svg width="16" height="16" viewBox="0 0 16 16" fill="none" xmlns="http://www.w3.org/2000/svg">
<path d="M13.8203 0.5C14.2891 0.5 14.6862 0.662761 15.0117 0.988281C15.3372 1.3138 15.5 1.71094 15.5 2.17969V13.8203C15.5 14.2891 15.3372 14.6862 15.0117 15.0117C14.6862 15.3372 14.2891 15.5 13.8203 15.5H2.17969C1.71094 15.5 1.3138 15.3372 0.988281 15.0117C0.66276 14.6862 0.5 14.2891 0.5 13.8203V2.17969C0.5 1.71094 0.66276 1.3138 0.988281 0.988281C1.3138 0.662761 1.71094 0.5 2.17969 0.5H13.8203ZM13.4297 13.4297V9.01562C13.4297 8.26042 13.1628 7.61589 12.6289 7.08203C12.0951 6.54818 11.4505 6.28125 10.6953 6.28125C10.3307 6.28125 9.96615 6.38542 9.60156 6.59375C9.23698 6.80208 8.96354 7.0625 8.78125 7.375V6.4375H6.4375V13.4297H8.78125V9.28906C8.78125 8.97656 8.89193 8.70964 9.11328 8.48828C9.33464 8.26693 9.60807 8.15625 9.93359 8.15625C10.2591 8.15625 10.5326 8.26693 10.7539 8.48828C10.9753 8.70964 11.0859 8.97656 11.0859 9.28906V13.4297H13.4297ZM3.74219 5.14844C4.13281 5.14844 4.46484 5.01172 4.73828 4.73828C5.01172 4.46484 5.14844 4.13281 5.14844 3.74219C5.14844 3.35156 5.01172 3.01953 4.73828 2.74609C4.46484 2.47266 4.13281 2.33594 3.74219 2.33594C3.35156 2.33594 3.01953 2.47266 2.74609 2.74609C2.47266 3.01953 2.33594 3.35156 2.33594 3.74219C2.33594 4.13281 2.47266 4.46484 2.74609 4.73828C3.01953 5.01172 3.35156 5.14844 3.74219 5.14844ZM4.875 13.4297V6.4375H2.57031V13.4297H4.875Z" fill="white"/>
</svg>
