<svg width="16" height="24" viewBox="0 0 16 24" fill="none" xmlns="http://www.w3.org/2000/svg">
<path d="M8 11.6562C7.54167 11.6562 7.15104 11.4948 6.82812 11.1719C6.50521 10.849 6.34375 10.4583 6.34375 10C6.34375 9.54167 6.50521 9.15104 6.82812 8.82812C7.15104 8.50521 7.54167 8.34375 8 8.34375C8.45833 8.34375 8.84896 8.50521 9.17188 8.82812C9.49479 9.15104 9.65625 9.54167 9.65625 10C9.65625 10.4583 9.49479 10.849 9.17188 11.1719C8.84896 11.4948 8.45833 11.6562 8 11.6562ZM8 5.34375C7.14583 5.34375 6.36458 5.55208 5.65625 5.96875C4.94792 6.38542 4.38542 6.94792 3.96875 7.65625C3.55208 8.36458 3.34375 9.13542 3.34375 9.96875C3.34375 10.8021 3.58333 11.7604 4.0625 12.8438C4.45833 13.6979 4.98958 14.6354 5.65625 15.6562C6.15625 16.3646 6.69792 17.0833 7.28125 17.8125L8 18.6562L8.71875 17.8125C9.30208 17.0833 9.84375 16.3646 10.3438 15.6562C11.0104 14.6354 11.5417 13.6979 11.9375 12.8438C12.4167 11.7604 12.6562 10.8021 12.6562 9.96875C12.6562 9.13542 12.4479 8.36458 12.0312 7.65625C11.6146 6.94792 11.0521 6.38542 10.3438 5.96875C9.63542 5.55208 8.85417 5.34375 8 5.34375Z" fill="white"/>
</svg>
