<svg width="86" height="70" viewBox="0 0 86 70" fill="none" xmlns="http://www.w3.org/2000/svg">
<path d="M8.91204 53.0798V57.3424H7.95015L7.637 56.5036C7.4807 56.6082 7.3089 56.7146 7.12273 56.8226C6.93656 56.9307 6.72165 57.0336 6.47975 57.1302C6.23727 57.2274 5.96146 57.3056 5.65232 57.3654C5.34319 57.4252 4.99096 57.4551 4.59563 57.4551C4.25259 57.4551 3.89864 57.4252 3.53319 57.3654C3.16775 57.3056 2.81552 57.209 2.4765 57.0745C2.13749 56.9405 1.81686 56.7628 1.51462 56.5432C1.21295 56.323 0.949785 56.0568 0.726265 55.7435C0.502745 55.4301 0.325193 55.0628 0.195334 54.6413C0.0648991 54.2199 -3.05176e-05 53.7404 -3.05176e-05 53.2034C-3.05176e-05 52.6589 0.0855851 52.1294 0.256816 51.6149C0.428048 51.1003 0.696387 50.6432 1.06183 50.2442C1.42728 49.8452 1.89673 49.5244 2.47076 49.2818C3.04478 49.0397 3.73775 48.9184 4.55024 48.9184C5.01969 48.9184 5.48971 48.965 5.95916 49.0581C6.42861 49.1518 6.86128 49.3065 7.25661 49.5226C7.65136 49.7388 7.99267 50.0205 8.27997 50.3672C8.5667 50.7139 8.75862 51.1446 8.85572 51.6597H7.2342C7.18938 51.5556 7.12043 51.4245 7.02734 51.2682C6.93426 51.1118 6.79635 50.9606 6.61363 50.8151C6.43091 50.6697 6.19015 50.5449 5.89193 50.4403C5.59371 50.3362 5.20988 50.2839 4.74043 50.2839C4.09917 50.2839 3.57571 50.3787 3.16947 50.569C2.76323 50.7593 2.4426 50.9979 2.20759 51.2848C1.97257 51.5723 1.81054 51.8816 1.72147 52.2134C1.63184 52.5457 1.58702 52.8533 1.58702 53.1367C1.58702 53.6214 1.66344 54.0451 1.81628 54.4068C1.96913 54.7684 2.17943 55.0708 2.44834 55.3129C2.71668 55.5555 3.03559 55.7383 3.40448 55.8613C3.77338 55.9844 4.17387 56.0459 4.60655 56.0459C5.39662 56.0459 6.01547 55.9079 6.46309 55.6319C6.91013 55.356 7.23075 54.9311 7.42497 54.3567H4.5738V53.0809H8.91204V53.0798Z" fill="url(#paint0_linear_1_1803)"/>
<path d="M9.9405 53.2483C9.9405 52.6888 10.0244 52.1501 10.1922 51.6315C10.36 51.1129 10.6358 50.6524 11.0196 50.25C11.4034 49.8469 11.9028 49.5244 12.5182 49.2823C13.133 49.0403 13.888 48.919 14.7827 48.919C15.6773 48.919 16.4318 49.0403 17.0472 49.2823C17.662 49.525 18.1613 49.8475 18.5452 50.25C18.929 50.653 19.2048 51.1135 19.3726 51.6315C19.5404 52.1501 19.6243 52.6888 19.6243 53.2483C19.6243 53.6731 19.5513 54.1302 19.4059 54.6189C19.2611 55.1076 19.0071 55.5624 18.6457 55.9838C18.2837 56.4052 17.7901 56.756 17.1638 57.0354C16.5381 57.3154 15.744 57.4551 14.7821 57.4551C13.8202 57.4551 13.0261 57.3154 12.4004 57.0354C11.7746 56.756 11.2805 56.4052 10.919 55.9838C10.557 55.5624 10.3042 55.1076 10.1588 54.6189C10.0135 54.1302 9.9405 53.6731 9.9405 53.2483ZM14.7827 56.0896C15.1625 56.0896 15.5463 56.0448 15.9342 55.9551C16.3214 55.8654 16.6702 55.709 16.9794 55.4853C17.2885 55.2617 17.5419 54.9616 17.7396 54.5844C17.9367 54.2078 18.0361 53.7324 18.0361 53.158C18.0361 52.6658 17.9539 52.2404 17.7901 51.8828C17.6264 51.5246 17.3988 51.2268 17.1081 50.9876C16.8173 50.749 16.4726 50.5719 16.0738 50.4564C15.675 50.3408 15.2446 50.2827 14.7821 50.2827C14.3195 50.2827 13.8892 50.3408 13.4904 50.4564C13.0916 50.5719 12.7469 50.749 12.4561 50.9876C12.1654 51.2262 11.9378 51.5246 11.7741 51.8828C11.6097 52.241 11.5281 52.6658 11.5281 53.158C11.5281 53.7324 11.627 54.2078 11.8246 54.5844C12.0223 54.961 12.2757 55.2617 12.5848 55.4853C12.8939 55.709 13.2427 55.866 13.63 55.9551C14.0179 56.0448 14.4023 56.0896 14.7827 56.0896Z" fill="url(#paint1_linear_1_1803)"/>
<path d="M21.0216 49.1196H22.6093V55.8441H28.5024V57.2539H21.0216V49.1196Z" fill="url(#paint2_linear_1_1803)"/>
<path d="M29.7212 49.1196H34.6191C35.096 49.1196 35.5304 49.1553 35.9217 49.226C36.313 49.2967 36.6486 49.4146 36.9278 49.5784C37.2077 49.7429 37.4237 49.9573 37.5766 50.2218C37.7294 50.4869 37.8058 50.8128 37.8058 51.2009C37.8058 51.4619 37.7777 51.6821 37.7219 51.861C37.6662 52.0398 37.5932 52.195 37.5036 52.3255C37.4139 52.456 37.3134 52.5658 37.2019 52.6555C37.0904 52.7452 36.9784 52.8234 36.8664 52.8907C37.0077 52.9505 37.1531 53.0402 37.3025 53.1592C37.4513 53.2787 37.5858 53.4219 37.7053 53.5898C37.8248 53.7577 37.9236 53.9497 38.0018 54.1659C38.0799 54.3821 38.1196 54.6247 38.1196 54.8932C38.1196 55.6613 37.8346 56.2472 37.264 56.6496C36.6934 57.0527 35.9125 57.2539 34.9213 57.2539H29.7218V49.1196H29.7212ZM34.7196 52.3307C35.2414 52.3307 35.6218 52.26 35.8602 52.1179C36.0987 51.9765 36.2182 51.7339 36.2182 51.3907C36.2182 51.0399 36.0987 50.7939 35.8602 50.6524C35.6218 50.511 35.2414 50.4397 34.7196 50.4397H31.3094V52.3307H34.7196ZM34.7645 55.9332C35.0179 55.9332 35.2523 55.9183 35.4689 55.8884C35.685 55.8585 35.8717 55.801 36.028 55.7148C36.1843 55.6291 36.3078 55.5095 36.3969 55.3566C36.4865 55.2036 36.5308 55.0082 36.5308 54.769C36.5308 54.3435 36.3705 54.0515 36.0498 53.8905C35.7292 53.7301 35.3006 53.6502 34.7639 53.6502H31.3088V55.9327H34.7645V55.9332Z" fill="url(#paint3_linear_1_1803)"/>
<path d="M42.8709 53.9974L38.9016 49.1191H40.8472L43.665 52.5653L46.4714 49.1191H48.4285L44.4591 53.9974V57.2533H42.8715V53.9974H42.8709Z" fill="url(#paint4_linear_1_1803)"/>
<path d="M53.628 49.1196H57.5416C58.1828 49.1196 58.7844 49.1927 59.3476 49.3381C59.9101 49.4836 60.4002 49.7147 60.818 50.0315C61.2357 50.3489 61.5655 50.7628 61.8074 51.2734C62.0493 51.7845 62.1706 52.4054 62.1706 53.1362C62.1706 53.8295 62.0591 54.4338 61.835 54.9489C61.6115 55.4635 61.2983 55.8924 60.8955 56.2357C60.4927 56.5789 60.0124 56.8342 59.4533 57.002C58.8942 57.1699 58.2794 57.2539 57.6082 57.2539H53.6274V49.1196H53.628ZM56.8256 55.8884C57.5037 55.8884 58.08 55.8361 58.5535 55.732C59.0269 55.6279 59.4142 55.4635 59.7165 55.2399C60.0187 55.0162 60.2382 54.7328 60.3761 54.3895C60.514 54.0469 60.5829 53.6364 60.5829 53.1586C60.5829 52.659 60.5123 52.2393 60.3709 51.9C60.229 51.5608 60.0072 51.2866 59.7055 51.0779C59.4039 50.8692 59.0143 50.718 58.5368 50.6248C58.0599 50.5317 57.4893 50.4851 56.8262 50.4851H55.2156V55.889H56.8256V55.8884Z" fill="url(#paint5_linear_1_1803)"/>
<path d="M63.6692 49.1196H65.2574V57.2539H63.6692V49.1196Z" fill="url(#paint6_linear_1_1803)"/>
<path d="M66.7553 53.2483C66.7553 52.6888 66.8392 52.1501 67.007 51.6315C67.1748 51.1129 67.45 50.6524 67.8344 50.25C68.2183 49.8469 68.7176 49.5244 69.333 49.2823C69.9478 49.0403 70.7028 48.919 71.5975 48.919C72.4922 48.919 73.2466 49.0403 73.862 49.2823C74.4768 49.525 74.9762 49.8475 75.3606 50.25C75.7444 50.653 76.0202 51.1135 76.188 51.6315C76.3558 52.1501 76.4397 52.6888 76.4397 53.2483C76.4397 53.6731 76.3667 54.1302 76.2213 54.6189C76.0759 55.1076 75.8225 55.5624 75.4611 55.9838C75.0991 56.4052 74.6055 56.756 73.9792 57.0354C73.3529 57.3154 72.5594 57.4551 71.5975 57.4551C70.6356 57.4551 69.8421 57.3154 69.2158 57.0354C68.5895 56.756 68.0959 56.4052 67.7339 55.9838C67.3719 55.5624 67.1191 55.1076 66.9737 54.6189C66.8277 54.1302 66.7553 53.6731 66.7553 53.2483ZM71.5969 56.0896C71.9773 56.0896 72.3611 56.0448 72.7484 55.9551C73.1357 55.8654 73.4845 55.709 73.7942 55.4853C74.1033 55.2617 74.3567 54.9616 74.5544 54.5844C74.7521 54.2078 74.8509 53.7324 74.8509 53.158C74.8509 52.6658 74.7687 52.2404 74.605 51.8828C74.4406 51.5246 74.2137 51.2268 73.9229 50.9876C73.6322 50.749 73.2874 50.5719 72.8886 50.4564C72.4899 50.3408 72.0595 50.2827 71.5969 50.2827C71.1344 50.2827 70.704 50.3408 70.3052 50.4564C69.9064 50.5719 69.5617 50.749 69.2709 50.9876C68.9802 51.2262 68.7526 51.5246 68.5889 51.8828C68.4246 52.241 68.343 52.6658 68.343 53.158C68.343 53.7324 68.4418 54.2078 68.6389 54.5844C68.8365 54.961 69.0899 55.2617 69.3991 55.4853C69.7082 55.709 70.057 55.866 70.4443 55.9551C70.8327 56.0448 71.2165 56.0896 71.5969 56.0896Z" fill="url(#paint7_linear_1_1803)"/>
<path d="M77.8365 49.1196H82.3655C82.5965 49.1196 82.8465 49.1237 83.1148 49.1306C83.3831 49.138 83.6515 49.1639 83.9198 49.2088C84.1882 49.2536 84.4473 49.326 84.6973 49.4272C84.9466 49.5278 85.1684 49.6716 85.3626 49.8579C85.5563 50.0442 85.7108 50.2793 85.8263 50.5627C85.9418 50.8462 85.9999 51.1969 85.9999 51.6143C85.9999 52.0248 85.9418 52.3732 85.8263 52.6607C85.7108 52.9482 85.5563 53.1827 85.3626 53.3656C85.1684 53.5484 84.9466 53.6898 84.6973 53.7904C84.4473 53.8911 84.1887 53.9641 83.9198 54.0089C83.6515 54.0538 83.3831 54.0796 83.1148 54.0871C82.8465 54.0946 82.5965 54.098 82.3655 54.098H79.4247V57.2533H77.8371V49.1196H77.8365ZM82.7114 52.7331C82.935 52.7331 83.1493 52.7239 83.3544 52.705C83.5595 52.6866 83.74 52.64 83.8968 52.5653C84.0531 52.4905 84.1784 52.3767 84.2715 52.2243C84.3646 52.0714 84.4111 51.8644 84.4111 51.6034C84.4111 51.3424 84.3646 51.1371 84.2715 50.9882C84.1784 50.8393 84.0531 50.7272 83.8968 50.6524C83.7405 50.5777 83.5595 50.5311 83.3544 50.5127C83.1493 50.4943 82.935 50.4845 82.7114 50.4845H79.4241V52.7337H82.7114V52.7331Z" fill="url(#paint8_linear_1_1803)"/>
<path d="M11.7971 61.4089H13.3853V64.6315H18.8417V61.4089H20.4299V69.5432H18.8417V66.0412H13.3847V69.5432H11.7965V61.4089H11.7971Z" fill="url(#paint9_linear_1_1803)"/>
<path d="M21.8274 65.5376C21.8274 64.9782 21.9113 64.4394 22.079 63.9209C22.2468 63.4023 22.5221 62.9417 22.9065 62.5393C23.2903 62.1362 23.7896 61.8137 24.405 61.5717C25.0198 61.3296 25.7749 61.2083 26.6695 61.2083C27.5642 61.2083 28.3186 61.3296 28.934 61.5717C29.5489 61.8143 30.0482 62.1368 30.4326 62.5393C30.8164 62.9423 31.0922 63.4028 31.26 63.9209C31.4278 64.4394 31.5117 64.9782 31.5117 65.5376C31.5117 65.9625 31.4387 66.4195 31.2933 66.9082C31.148 67.3969 30.8946 67.8517 30.5331 68.2731C30.1711 68.6946 29.6776 69.0453 29.0512 69.3247C28.4249 69.6047 27.6314 69.7444 26.6695 69.7444C25.7076 69.7444 24.9141 69.6047 24.2878 69.3247C23.6615 69.0453 23.1679 68.6946 22.8059 68.2731C22.4439 67.8517 22.1911 67.3969 22.0457 66.9082C21.8998 66.4195 21.8274 65.9625 21.8274 65.5376ZM26.6689 68.3795C27.0493 68.3795 27.4332 68.3347 27.8205 68.245C28.2077 68.1553 28.5565 67.9989 28.8662 67.7752C29.1754 67.5516 29.4288 67.2515 29.6264 66.8743C29.8241 66.4977 29.9229 66.0223 29.9229 65.4479C29.9229 64.9557 29.8408 64.5303 29.677 64.1727C29.5127 63.8145 29.2857 63.5167 28.9949 63.2775C28.7042 63.0389 28.3594 62.8618 27.9607 62.7463C27.5619 62.6307 27.1315 62.5726 26.6689 62.5726C26.2064 62.5726 25.776 62.6307 25.3772 62.7463C24.9785 62.8618 24.6337 63.0389 24.343 63.2775C24.0522 63.5161 23.8247 63.8145 23.6609 64.1727C23.4966 64.5309 23.415 64.9557 23.415 65.4479C23.415 66.0223 23.5138 66.4977 23.7109 66.8743C23.9086 67.2509 24.162 67.5516 24.4711 67.7752C24.7802 67.9989 25.129 68.1558 25.5163 68.245C25.9047 68.3347 26.2886 68.3795 26.6689 68.3795Z" fill="url(#paint10_linear_1_1803)"/>
<path d="M32.9079 61.4089H34.4955V68.1334H40.3886V69.5432H32.9079V61.4089Z" fill="url(#paint11_linear_1_1803)"/>
<path d="M41.6074 61.4089H45.521C46.1623 61.4089 46.7639 61.482 47.327 61.6274C47.8895 61.7729 48.3796 62.004 48.7974 62.3208C49.2151 62.6382 49.5449 63.0521 49.7868 63.5627C50.0287 64.0738 50.15 64.6947 50.15 65.4255C50.15 66.1188 50.0385 66.7231 49.8144 67.2382C49.5903 67.7534 49.2777 68.1817 48.875 68.525C48.4722 68.8682 47.9918 69.1235 47.4327 69.2913C46.8736 69.4592 46.2588 69.5432 45.5877 69.5432H41.6068V61.4089H41.6074ZM44.8056 68.1777C45.4837 68.1777 46.06 68.1254 46.5335 68.0213C47.0069 67.9172 47.3942 67.7528 47.6964 67.5292C47.9981 67.3055 48.2182 67.0221 48.3561 66.6788C48.494 66.3362 48.5629 65.9257 48.5629 65.4479C48.5629 64.9483 48.4923 64.5286 48.3509 64.1893C48.209 63.8501 47.9872 63.5759 47.6855 63.3672C47.3839 63.1585 46.9943 63.0073 46.5168 62.9141C46.0399 62.821 45.4693 62.7744 44.8062 62.7744H43.1956V68.1783H44.8056V68.1777Z" fill="url(#paint12_linear_1_1803)"/>
<path d="M51.6491 61.4089H53.2373V69.5432H51.6491V61.4089Z" fill="url(#paint13_linear_1_1803)"/>
<path d="M55.2605 61.4089H56.9378L62.3724 67.2831V61.4089H63.8934V69.5432H62.4396L56.7815 63.4569V69.5432H55.2605V61.4089Z" fill="url(#paint14_linear_1_1803)"/>
<path d="M74.2022 65.3697V69.6323H73.2403L72.9272 68.7935C72.7709 68.8981 72.5991 69.0045 72.4129 69.1125C72.2262 69.2206 72.0118 69.3236 71.7699 69.4201C71.5274 69.5173 71.2516 69.5955 70.9425 69.6553C70.6328 69.7151 70.2811 69.745 69.8858 69.745C69.5428 69.745 69.1888 69.7151 68.8234 69.6553C68.4579 69.5955 68.1057 69.4989 67.7667 69.3644C67.4277 69.2304 67.107 69.0528 66.8048 68.8331C66.5026 68.6129 66.24 68.3467 66.0164 68.0334C65.7929 67.72 65.6154 67.3527 65.4855 66.9312C65.3551 66.5098 65.2901 66.0303 65.2901 65.4933C65.2901 64.9488 65.3758 64.4193 65.547 63.9048C65.7182 63.3902 65.9866 62.9331 66.352 62.5341C66.7175 62.1351 67.1869 61.8143 67.7609 61.5717C68.335 61.3296 69.0279 61.2083 69.8404 61.2083C70.3099 61.2083 70.7799 61.2549 71.2493 61.348C71.7188 61.4417 72.1515 61.5964 72.5462 61.8126C72.9415 62.0287 73.2823 62.3105 73.5696 62.6571C73.8563 63.0038 74.0488 63.4345 74.1453 63.9496H72.5238C72.479 63.8455 72.41 63.7144 72.3169 63.5581C72.2233 63.4017 72.086 63.2505 71.9032 63.105C71.7205 62.9596 71.4803 62.8348 71.1821 62.7302C70.8839 62.6261 70.5001 62.5738 70.0306 62.5738C69.3894 62.5738 68.8659 62.6686 68.4596 62.8589C68.0534 63.0492 67.7328 63.2878 67.4978 63.5747C67.2633 63.8622 67.1007 64.1715 67.0116 64.5033C66.922 64.8356 66.8778 65.1432 66.8778 65.4266C66.8778 65.9113 66.9542 66.335 67.107 66.6967C67.2599 67.0583 67.4702 67.3607 67.7391 67.6028C68.0074 67.8454 68.3258 68.0282 68.6952 68.1512C69.0641 68.2743 69.4646 68.3358 69.8973 68.3358C70.6874 68.3358 71.3062 68.1978 71.7533 67.9218C72.2009 67.6459 72.5209 67.221 72.7151 66.6466H69.8634V65.3708H74.2022V65.3697Z" fill="url(#paint15_linear_1_1803)"/>
<path d="M46.5139 22.665L43.0083 20.6412L43.0037 20.6383L57.086 12.4874L60.6255 10.4372L57.0837 8.39156L53.5746 6.36605L50.0345 4.32042L46.5053 6.36375L38.1937 11.1737L34.6645 13.217L38.1104 15.2144L38.2 15.2649L41.7361 13.2193L50.0431 8.40938L53.5482 10.4395L27.5986 25.4609V13.2486L46.5254 2.29204L42.9985 0.255028L23.5988 11.4635V15.5639V27.7762V29.555V31.8697L39.4727 22.6822L39.4773 22.6845L42.9767 24.7118L25.3714 34.902L28.911 36.9476L46.5133 26.7591L46.5196 26.7626L50.0598 24.7129L50.054 24.7095L58.4007 19.8783V32.0928L42.9956 41.009L42.9922 41.0072L39.4825 38.9812L35.943 36.9355L32.4138 38.9789L35.9516 41.0251L39.4566 43.0552L42.9939 45.1031L46.534 43.0529L46.5248 43.0477L62.4005 33.878V33.6549V29.7781V17.5636V15.5639V13.47L46.5139 22.665Z" fill="url(#paint16_linear_1_1803)"/>
<defs>
<linearGradient id="paint0_linear_1_1803" x1="71.017" y1="119.631" x2="-79.0312" y2="-30.3288" gradientUnits="userSpaceOnUse">
<stop stop-color="#E5CE65"/>
<stop offset="0.0409" stop-color="#D2B453"/>
<stop offset="0.1143" stop-color="#B48B36"/>
<stop offset="0.1811" stop-color="#9F6D21"/>
<stop offset="0.2381" stop-color="#925A15"/>
<stop offset="0.2789" stop-color="#8D5410"/>
<stop offset="0.3322" stop-color="#97621A"/>
<stop offset="0.4331" stop-color="#B28735"/>
<stop offset="0.5697" stop-color="#DDC35F"/>
<stop offset="0.6488" stop-color="#F8E87A"/>
<stop offset="0.676" stop-color="#F2DF74"/>
<stop offset="0.7203" stop-color="#E0C762"/>
<stop offset="0.7762" stop-color="#C39F46"/>
<stop offset="0.841" stop-color="#9C691F"/>
<stop offset="0.8636" stop-color="#8D5410"/>
<stop offset="1" stop-color="#C19832"/>
</linearGradient>
<linearGradient id="paint1_linear_1_1803" x1="76.1094" y1="114.536" x2="-73.9387" y2="-35.4243" gradientUnits="userSpaceOnUse">
<stop stop-color="#E5CE65"/>
<stop offset="0.0409" stop-color="#D2B453"/>
<stop offset="0.1143" stop-color="#B48B36"/>
<stop offset="0.1811" stop-color="#9F6D21"/>
<stop offset="0.2381" stop-color="#925A15"/>
<stop offset="0.2789" stop-color="#8D5410"/>
<stop offset="0.3322" stop-color="#97621A"/>
<stop offset="0.4331" stop-color="#B28735"/>
<stop offset="0.5697" stop-color="#DDC35F"/>
<stop offset="0.6488" stop-color="#F8E87A"/>
<stop offset="0.676" stop-color="#F2DF74"/>
<stop offset="0.7203" stop-color="#E0C762"/>
<stop offset="0.7762" stop-color="#C39F46"/>
<stop offset="0.841" stop-color="#9C691F"/>
<stop offset="0.8636" stop-color="#8D5410"/>
<stop offset="1" stop-color="#C19832"/>
</linearGradient>
<linearGradient id="paint2_linear_1_1803" x1="79.6191" y1="111.024" x2="-70.4291" y2="-38.9361" gradientUnits="userSpaceOnUse">
<stop stop-color="#E5CE65"/>
<stop offset="0.0409" stop-color="#D2B453"/>
<stop offset="0.1143" stop-color="#B48B36"/>
<stop offset="0.1811" stop-color="#9F6D21"/>
<stop offset="0.2381" stop-color="#925A15"/>
<stop offset="0.2789" stop-color="#8D5410"/>
<stop offset="0.3322" stop-color="#97621A"/>
<stop offset="0.4331" stop-color="#B28735"/>
<stop offset="0.5697" stop-color="#DDC35F"/>
<stop offset="0.6488" stop-color="#F8E87A"/>
<stop offset="0.676" stop-color="#F2DF74"/>
<stop offset="0.7203" stop-color="#E0C762"/>
<stop offset="0.7762" stop-color="#C39F46"/>
<stop offset="0.841" stop-color="#9C691F"/>
<stop offset="0.8636" stop-color="#8D5410"/>
<stop offset="1" stop-color="#C19832"/>
</linearGradient>
<linearGradient id="paint3_linear_1_1803" x1="85.2812" y1="105.359" x2="-64.767" y2="-44.6014" gradientUnits="userSpaceOnUse">
<stop stop-color="#E5CE65"/>
<stop offset="0.0409" stop-color="#D2B453"/>
<stop offset="0.1143" stop-color="#B48B36"/>
<stop offset="0.1811" stop-color="#9F6D21"/>
<stop offset="0.2381" stop-color="#925A15"/>
<stop offset="0.2789" stop-color="#8D5410"/>
<stop offset="0.3322" stop-color="#97621A"/>
<stop offset="0.4331" stop-color="#B28735"/>
<stop offset="0.5697" stop-color="#DDC35F"/>
<stop offset="0.6488" stop-color="#F8E87A"/>
<stop offset="0.676" stop-color="#F2DF74"/>
<stop offset="0.7203" stop-color="#E0C762"/>
<stop offset="0.7762" stop-color="#C39F46"/>
<stop offset="0.841" stop-color="#9C691F"/>
<stop offset="0.8636" stop-color="#8D5410"/>
<stop offset="1" stop-color="#C19832"/>
</linearGradient>
<linearGradient id="paint4_linear_1_1803" x1="91.5363" y1="99.1" x2="-58.512" y2="-50.8602" gradientUnits="userSpaceOnUse">
<stop stop-color="#E5CE65"/>
<stop offset="0.0409" stop-color="#D2B453"/>
<stop offset="0.1143" stop-color="#B48B36"/>
<stop offset="0.1811" stop-color="#9F6D21"/>
<stop offset="0.2381" stop-color="#925A15"/>
<stop offset="0.2789" stop-color="#8D5410"/>
<stop offset="0.3322" stop-color="#97621A"/>
<stop offset="0.4331" stop-color="#B28735"/>
<stop offset="0.5697" stop-color="#DDC35F"/>
<stop offset="0.6488" stop-color="#F8E87A"/>
<stop offset="0.676" stop-color="#F2DF74"/>
<stop offset="0.7203" stop-color="#E0C762"/>
<stop offset="0.7762" stop-color="#C39F46"/>
<stop offset="0.841" stop-color="#9C691F"/>
<stop offset="0.8636" stop-color="#8D5410"/>
<stop offset="1" stop-color="#C19832"/>
</linearGradient>
<linearGradient id="paint5_linear_1_1803" x1="97.1052" y1="93.5277" x2="-52.9429" y2="-56.4325" gradientUnits="userSpaceOnUse">
<stop stop-color="#E5CE65"/>
<stop offset="0.0409" stop-color="#D2B453"/>
<stop offset="0.1143" stop-color="#B48B36"/>
<stop offset="0.1811" stop-color="#9F6D21"/>
<stop offset="0.2381" stop-color="#925A15"/>
<stop offset="0.2789" stop-color="#8D5410"/>
<stop offset="0.3322" stop-color="#97621A"/>
<stop offset="0.4331" stop-color="#B28735"/>
<stop offset="0.5697" stop-color="#DDC35F"/>
<stop offset="0.6488" stop-color="#F8E87A"/>
<stop offset="0.676" stop-color="#F2DF74"/>
<stop offset="0.7203" stop-color="#E0C762"/>
<stop offset="0.7762" stop-color="#C39F46"/>
<stop offset="0.841" stop-color="#9C691F"/>
<stop offset="0.8636" stop-color="#8D5410"/>
<stop offset="1" stop-color="#C19832"/>
</linearGradient>
<linearGradient id="paint6_linear_1_1803" x1="100.943" y1="89.6878" x2="-49.1052" y2="-60.2724" gradientUnits="userSpaceOnUse">
<stop stop-color="#E5CE65"/>
<stop offset="0.0409" stop-color="#D2B453"/>
<stop offset="0.1143" stop-color="#B48B36"/>
<stop offset="0.1811" stop-color="#9F6D21"/>
<stop offset="0.2381" stop-color="#925A15"/>
<stop offset="0.2789" stop-color="#8D5410"/>
<stop offset="0.3322" stop-color="#97621A"/>
<stop offset="0.4331" stop-color="#B28735"/>
<stop offset="0.5697" stop-color="#DDC35F"/>
<stop offset="0.6488" stop-color="#F8E87A"/>
<stop offset="0.676" stop-color="#F2DF74"/>
<stop offset="0.7203" stop-color="#E0C762"/>
<stop offset="0.7762" stop-color="#C39F46"/>
<stop offset="0.841" stop-color="#9C691F"/>
<stop offset="0.8636" stop-color="#8D5410"/>
<stop offset="1" stop-color="#C19832"/>
</linearGradient>
<linearGradient id="paint7_linear_1_1803" x1="104.517" y1="86.1118" x2="-45.5314" y2="-63.8483" gradientUnits="userSpaceOnUse">
<stop stop-color="#E5CE65"/>
<stop offset="0.0409" stop-color="#D2B453"/>
<stop offset="0.1143" stop-color="#B48B36"/>
<stop offset="0.1811" stop-color="#9F6D21"/>
<stop offset="0.2381" stop-color="#925A15"/>
<stop offset="0.2789" stop-color="#8D5410"/>
<stop offset="0.3322" stop-color="#97621A"/>
<stop offset="0.4331" stop-color="#B28735"/>
<stop offset="0.5697" stop-color="#DDC35F"/>
<stop offset="0.6488" stop-color="#F8E87A"/>
<stop offset="0.676" stop-color="#F2DF74"/>
<stop offset="0.7203" stop-color="#E0C762"/>
<stop offset="0.7762" stop-color="#C39F46"/>
<stop offset="0.841" stop-color="#9C691F"/>
<stop offset="0.8636" stop-color="#8D5410"/>
<stop offset="1" stop-color="#C19832"/>
</linearGradient>
<linearGradient id="paint8_linear_1_1803" x1="109.327" y1="81.2992" x2="-40.7217" y2="-68.6609" gradientUnits="userSpaceOnUse">
<stop stop-color="#E5CE65"/>
<stop offset="0.0409" stop-color="#D2B453"/>
<stop offset="0.1143" stop-color="#B48B36"/>
<stop offset="0.1811" stop-color="#9F6D21"/>
<stop offset="0.2381" stop-color="#925A15"/>
<stop offset="0.2789" stop-color="#8D5410"/>
<stop offset="0.3322" stop-color="#97621A"/>
<stop offset="0.4331" stop-color="#B28735"/>
<stop offset="0.5697" stop-color="#DDC35F"/>
<stop offset="0.6488" stop-color="#F8E87A"/>
<stop offset="0.676" stop-color="#F2DF74"/>
<stop offset="0.7203" stop-color="#E0C762"/>
<stop offset="0.7762" stop-color="#C39F46"/>
<stop offset="0.841" stop-color="#9C691F"/>
<stop offset="0.8636" stop-color="#8D5410"/>
<stop offset="1" stop-color="#C19832"/>
</linearGradient>
<linearGradient id="paint9_linear_1_1803" x1="70.627" y1="120.022" x2="-79.4211" y2="-29.9387" gradientUnits="userSpaceOnUse">
<stop stop-color="#E5CE65"/>
<stop offset="0.0409" stop-color="#D2B453"/>
<stop offset="0.1143" stop-color="#B48B36"/>
<stop offset="0.1811" stop-color="#9F6D21"/>
<stop offset="0.2381" stop-color="#925A15"/>
<stop offset="0.2789" stop-color="#8D5410"/>
<stop offset="0.3322" stop-color="#97621A"/>
<stop offset="0.4331" stop-color="#B28735"/>
<stop offset="0.5697" stop-color="#DDC35F"/>
<stop offset="0.6488" stop-color="#F8E87A"/>
<stop offset="0.676" stop-color="#F2DF74"/>
<stop offset="0.7203" stop-color="#E0C762"/>
<stop offset="0.7762" stop-color="#C39F46"/>
<stop offset="0.841" stop-color="#9C691F"/>
<stop offset="0.8636" stop-color="#8D5410"/>
<stop offset="1" stop-color="#C19832"/>
</linearGradient>
<linearGradient id="paint10_linear_1_1803" x1="75.9116" y1="114.734" x2="-74.1365" y2="-35.2263" gradientUnits="userSpaceOnUse">
<stop stop-color="#E5CE65"/>
<stop offset="0.0409" stop-color="#D2B453"/>
<stop offset="0.1143" stop-color="#B48B36"/>
<stop offset="0.1811" stop-color="#9F6D21"/>
<stop offset="0.2381" stop-color="#925A15"/>
<stop offset="0.2789" stop-color="#8D5410"/>
<stop offset="0.3322" stop-color="#97621A"/>
<stop offset="0.4331" stop-color="#B28735"/>
<stop offset="0.5697" stop-color="#DDC35F"/>
<stop offset="0.6488" stop-color="#F8E87A"/>
<stop offset="0.676" stop-color="#F2DF74"/>
<stop offset="0.7203" stop-color="#E0C762"/>
<stop offset="0.7762" stop-color="#C39F46"/>
<stop offset="0.841" stop-color="#9C691F"/>
<stop offset="0.8636" stop-color="#8D5410"/>
<stop offset="1" stop-color="#C19832"/>
</linearGradient>
<linearGradient id="paint11_linear_1_1803" x1="79.4213" y1="111.222" x2="-70.6268" y2="-38.7382" gradientUnits="userSpaceOnUse">
<stop stop-color="#E5CE65"/>
<stop offset="0.0409" stop-color="#D2B453"/>
<stop offset="0.1143" stop-color="#B48B36"/>
<stop offset="0.1811" stop-color="#9F6D21"/>
<stop offset="0.2381" stop-color="#925A15"/>
<stop offset="0.2789" stop-color="#8D5410"/>
<stop offset="0.3322" stop-color="#97621A"/>
<stop offset="0.4331" stop-color="#B28735"/>
<stop offset="0.5697" stop-color="#DDC35F"/>
<stop offset="0.6488" stop-color="#F8E87A"/>
<stop offset="0.676" stop-color="#F2DF74"/>
<stop offset="0.7203" stop-color="#E0C762"/>
<stop offset="0.7762" stop-color="#C39F46"/>
<stop offset="0.841" stop-color="#9C691F"/>
<stop offset="0.8636" stop-color="#8D5410"/>
<stop offset="1" stop-color="#C19832"/>
</linearGradient>
<linearGradient id="paint12_linear_1_1803" x1="84.9541" y1="105.686" x2="-65.0941" y2="-44.2741" gradientUnits="userSpaceOnUse">
<stop stop-color="#E5CE65"/>
<stop offset="0.0409" stop-color="#D2B453"/>
<stop offset="0.1143" stop-color="#B48B36"/>
<stop offset="0.1811" stop-color="#9F6D21"/>
<stop offset="0.2381" stop-color="#925A15"/>
<stop offset="0.2789" stop-color="#8D5410"/>
<stop offset="0.3322" stop-color="#97621A"/>
<stop offset="0.4331" stop-color="#B28735"/>
<stop offset="0.5697" stop-color="#DDC35F"/>
<stop offset="0.6488" stop-color="#F8E87A"/>
<stop offset="0.676" stop-color="#F2DF74"/>
<stop offset="0.7203" stop-color="#E0C762"/>
<stop offset="0.7762" stop-color="#C39F46"/>
<stop offset="0.841" stop-color="#9C691F"/>
<stop offset="0.8636" stop-color="#8D5410"/>
<stop offset="1" stop-color="#C19832"/>
</linearGradient>
<linearGradient id="paint13_linear_1_1803" x1="88.7918" y1="101.846" x2="-61.2563" y2="-48.1142" gradientUnits="userSpaceOnUse">
<stop stop-color="#E5CE65"/>
<stop offset="0.0409" stop-color="#D2B453"/>
<stop offset="0.1143" stop-color="#B48B36"/>
<stop offset="0.1811" stop-color="#9F6D21"/>
<stop offset="0.2381" stop-color="#925A15"/>
<stop offset="0.2789" stop-color="#8D5410"/>
<stop offset="0.3322" stop-color="#97621A"/>
<stop offset="0.4331" stop-color="#B28735"/>
<stop offset="0.5697" stop-color="#DDC35F"/>
<stop offset="0.6488" stop-color="#F8E87A"/>
<stop offset="0.676" stop-color="#F2DF74"/>
<stop offset="0.7203" stop-color="#E0C762"/>
<stop offset="0.7762" stop-color="#C39F46"/>
<stop offset="0.841" stop-color="#9C691F"/>
<stop offset="0.8636" stop-color="#8D5410"/>
<stop offset="1" stop-color="#C19832"/>
</linearGradient>
<linearGradient id="paint14_linear_1_1803" x1="92.3588" y1="98.277" x2="-57.6893" y2="-51.6831" gradientUnits="userSpaceOnUse">
<stop stop-color="#E5CE65"/>
<stop offset="0.0409" stop-color="#D2B453"/>
<stop offset="0.1143" stop-color="#B48B36"/>
<stop offset="0.1811" stop-color="#9F6D21"/>
<stop offset="0.2381" stop-color="#925A15"/>
<stop offset="0.2789" stop-color="#8D5410"/>
<stop offset="0.3322" stop-color="#97621A"/>
<stop offset="0.4331" stop-color="#B28735"/>
<stop offset="0.5697" stop-color="#DDC35F"/>
<stop offset="0.6488" stop-color="#F8E87A"/>
<stop offset="0.676" stop-color="#F2DF74"/>
<stop offset="0.7203" stop-color="#E0C762"/>
<stop offset="0.7762" stop-color="#C39F46"/>
<stop offset="0.841" stop-color="#9C691F"/>
<stop offset="0.8636" stop-color="#8D5410"/>
<stop offset="1" stop-color="#C19832"/>
</linearGradient>
<linearGradient id="paint15_linear_1_1803" x1="97.5211" y1="93.1116" x2="-52.527" y2="-56.8486" gradientUnits="userSpaceOnUse">
<stop stop-color="#E5CE65"/>
<stop offset="0.0409" stop-color="#D2B453"/>
<stop offset="0.1143" stop-color="#B48B36"/>
<stop offset="0.1811" stop-color="#9F6D21"/>
<stop offset="0.2381" stop-color="#925A15"/>
<stop offset="0.2789" stop-color="#8D5410"/>
<stop offset="0.3322" stop-color="#97621A"/>
<stop offset="0.4331" stop-color="#B28735"/>
<stop offset="0.5697" stop-color="#DDC35F"/>
<stop offset="0.6488" stop-color="#F8E87A"/>
<stop offset="0.676" stop-color="#F2DF74"/>
<stop offset="0.7203" stop-color="#E0C762"/>
<stop offset="0.7762" stop-color="#C39F46"/>
<stop offset="0.841" stop-color="#9C691F"/>
<stop offset="0.8636" stop-color="#8D5410"/>
<stop offset="1" stop-color="#C19832"/>
</linearGradient>
<linearGradient id="paint16_linear_1_1803" x1="105.46" y1="85.168" x2="-44.5881" y2="-64.7922" gradientUnits="userSpaceOnUse">
<stop stop-color="#E5CE65"/>
<stop offset="0.0409" stop-color="#D2B453"/>
<stop offset="0.1143" stop-color="#B48B36"/>
<stop offset="0.1811" stop-color="#9F6D21"/>
<stop offset="0.2381" stop-color="#925A15"/>
<stop offset="0.2789" stop-color="#8D5410"/>
<stop offset="0.3322" stop-color="#97621A"/>
<stop offset="0.4331" stop-color="#B28735"/>
<stop offset="0.5697" stop-color="#DDC35F"/>
<stop offset="0.6488" stop-color="#F8E87A"/>
<stop offset="0.676" stop-color="#F2DF74"/>
<stop offset="0.7203" stop-color="#E0C762"/>
<stop offset="0.7762" stop-color="#C39F46"/>
<stop offset="0.841" stop-color="#9C691F"/>
<stop offset="0.8636" stop-color="#8D5410"/>
<stop offset="1" stop-color="#C19832"/>
</linearGradient>
</defs>
</svg>
