<svg width="16" height="24" viewBox="0 0 16 24" fill="none" xmlns="http://www.w3.org/2000/svg">
<path d="M13.3438 9.34375L8 12.6562L2.65625 9.34375V8L8 11.3438L13.3438 8V9.34375ZM13.3438 6.65625H2.65625C2.30208 6.65625 1.99479 6.78646 1.73438 7.04688C1.47396 7.30729 1.34375 7.625 1.34375 8V16C1.34375 16.375 1.47396 16.6927 1.73438 16.9531C1.99479 17.2135 2.30208 17.3438 2.65625 17.3438H13.3438C13.6979 17.3438 14.0052 17.2135 14.2656 16.9531C14.526 16.6927 14.6562 16.375 14.6562 16V8C14.6562 7.625 14.526 7.30729 14.2656 7.04688C14.0052 6.78646 13.6979 6.65625 13.3438 6.65625Z" fill="white"/>
</svg>
