<svg width="16" height="24" viewBox="0 0 16 24" fill="none" xmlns="http://www.w3.org/2000/svg">
<path d="M4.40625 11.1875C4.88542 12.125 5.50521 12.974 6.26562 13.7344C7.02604 14.4948 7.875 15.1146 8.8125 15.5938L10.2812 14.125C10.4688 13.9375 10.6979 13.8854 10.9688 13.9688C11.7188 14.2188 12.5104 14.3438 13.3438 14.3438C13.5312 14.3438 13.6875 14.4062 13.8125 14.5312C13.9375 14.6562 14 14.8125 14 15V17.3438C14 17.5312 13.9375 17.6875 13.8125 17.8125C13.6875 17.9375 13.5312 18 13.3438 18C11.8438 18 10.3958 17.7135 9 17.1406C7.60417 16.5677 6.375 15.75 5.3125 14.6875C4.25 13.625 3.43229 12.3958 2.85938 11C2.28646 9.60417 2 8.15625 2 6.65625C2 6.46875 2.0625 6.3125 2.1875 6.1875C2.3125 6.0625 2.46875 6 2.65625 6H5C5.1875 6 5.34375 6.0625 5.46875 6.1875C5.59375 6.3125 5.65625 6.46875 5.65625 6.65625C5.65625 7.48958 5.78125 8.28125 6.03125 9.03125C6.11458 9.30208 6.0625 9.53125 5.875 9.71875L4.40625 11.1875Z" fill="white"/>
</svg>
