<svg width="18" height="15" viewBox="0 0 18 15" fill="none" xmlns="http://www.w3.org/2000/svg">
<path d="M17.7109 2C17.0859 2.28646 16.4089 2.48177 15.6797 2.58594C16.4349 2.11719 16.9557 1.45312 17.2422 0.59375C16.5391 1.01042 15.7839 1.29688 14.9766 1.45312C14.2734 0.697917 13.388 0.320312 12.3203 0.320312C11.3568 0.320312 10.5234 0.671875 9.82031 1.375C9.11719 2.07812 8.76562 2.92448 8.76562 3.91406C8.76562 4.17448 8.80469 4.44792 8.88281 4.73438C7.42448 4.65625 6.05078 4.28516 4.76172 3.62109C3.47266 2.95703 2.38542 2.07812 1.5 0.984375C1.1875 1.53125 1.03125 2.1237 1.03125 2.76172C1.03125 3.39974 1.17448 3.97917 1.46094 4.5C1.7474 5.02083 2.125 5.4375 2.59375 5.75C2.04688 5.75 1.51302 5.60677 0.992188 5.32031V5.35938C0.992188 6.21875 1.26562 6.97396 1.8125 7.625C2.35938 8.27604 3.03646 8.69271 3.84375 8.875C3.55729 8.95312 3.24479 8.99219 2.90625 8.99219C2.69792 8.99219 2.47656 8.96615 2.24219 8.91406C2.47656 9.64323 2.89974 10.2357 3.51172 10.6914C4.1237 11.1471 4.80729 11.388 5.5625 11.4141C4.28646 12.4297 2.8151 12.9375 1.14844 12.9375C0.861979 12.9375 0.575521 12.9245 0.289062 12.8984C1.95573 13.9661 3.77865 14.5 5.75781 14.5C7.84115 14.5 9.6901 13.9661 11.3047 12.8984C12.7891 11.9609 13.9479 10.6849 14.7812 9.07031C15.5625 7.53385 15.9531 5.95833 15.9531 4.34375L15.9141 3.875C16.6172 3.38021 17.2161 2.75521 17.7109 2Z" fill="white"/>
</svg>
